<svg width="16" height="16" viewBox="0 0 16 16" fill="none" xmlns="http://www.w3.org/2000/svg">
<rect width="16" height="16" fill="url(#paint0_radial_12208_910)"/>
<path fill-rule="evenodd" clip-rule="evenodd" d="M9.7629 4.48438C9.51951 4.80208 9.39782 5.14583 9.39782 5.51562V9.75C9.39782 9.85938 9.39253 9.97135 9.38194 10.0859C9.37136 10.2005 9.35549 10.3151 9.33433 10.4297C9.60417 10.3776 9.85152 10.2982 10.0764 10.1914C10.3013 10.0846 10.5036 9.94792 10.6835 9.78125C10.8634 9.61458 11.0195 9.41797 11.1518 9.19141C11.2841 8.96484 11.3952 8.70833 11.4851 8.42188L11.6597 7.85938V4.00781C10.6386 4.00781 10.0063 4.16667 9.7629 4.48438ZM6.24702 4.44531H5.79464V4.88281H6.24702V4.44531ZM6.6994 5.10938H6.24702V5.54688H6.6994V5.10938ZM6.24702 5.66406H5.79464V6.10156H6.24702V5.66406ZM5.79464 6.32031H5.34226V6.76562H5.79464V6.32031ZM4.88988 4H4.4375V4.44531H4.88988V4ZM6.90972 10.7422C6.76951 10.4609 6.6994 10.1302 6.6994 9.75V6.53906H6.24702V8.17969H5.79464V7.20312H5.34226V7.64062H4.88988V5.21875H4.4375V8.84375C4.4375 9.29167 4.51951 9.70833 4.68353 10.0938C4.84755 10.4792 5.08432 10.8138 5.39385 11.0977C5.70337 11.3815 6.08168 11.6029 6.52877 11.7617C6.97586 11.9206 7.48247 12 8.04861 12L7.83829 11.8633C7.69808 11.7721 7.54332 11.6328 7.37401 11.4453C7.20469 11.2578 7.04993 11.0234 6.90972 10.7422ZM9.51686 10.5703C9.16766 10.6484 8.78406 10.6797 8.36607 10.6641C8.06448 10.6484 7.79597 10.6055 7.56052 10.5352C7.32506 10.4648 7.1174 10.375 6.9375 10.2656C7.05919 10.7865 7.28406 11.1758 7.6121 11.4336C7.94015 11.6914 8.11475 11.8281 8.13591 11.8438L8.40575 11.9844C8.91898 11.9531 9.37665 11.8516 9.77877 11.6797C10.1809 11.5078 10.5222 11.2826 10.8026 11.0039C11.083 10.7253 11.296 10.4023 11.4415 10.0352C11.587 9.66797 11.6597 9.27084 11.6597 8.84375V8.46875C11.538 8.86459 11.3767 9.20443 11.1756 9.48828C10.9745 9.77214 10.7351 10.0039 10.4573 10.1836C10.1796 10.3633 9.86607 10.4922 9.51686 10.5703ZM5.78671 4.89062H5.34226V5.32812H5.78671V4.89062ZM11.904 4C11.9463 4 11.9832 4.0151 12.0149 4.04529C12.0466 4.07548 12.0625 4.11171 12.0625 4.15399C12.0625 4.19928 12.0466 4.23702 12.0149 4.26721C11.9832 4.2974 11.9463 4.3125 11.904 4.3125C11.8617 4.3125 11.8255 4.2974 11.7953 4.26721C11.7651 4.23702 11.75 4.19928 11.75 4.15399C11.75 4.11171 11.7651 4.07548 11.7953 4.04529C11.8255 4.0151 11.8617 4 11.904 4ZM11.904 4.28986C11.9402 4.28986 11.9712 4.27702 11.9968 4.25136C12.0225 4.22569 12.0353 4.19324 12.0353 4.15399C12.0353 4.11775 12.0225 4.08681 11.9968 4.06114C11.9712 4.03548 11.9402 4.02264 11.904 4.02264C11.8678 4.02264 11.8376 4.03548 11.8134 4.06114C11.7893 4.08681 11.7772 4.11775 11.7772 4.15399C11.7772 4.19324 11.7893 4.22569 11.8134 4.25136C11.8376 4.27702 11.8678 4.28986 11.904 4.28986ZM11.9651 4.15172C11.9727 4.14417 11.9764 4.13285 11.9764 4.11775C11.9764 4.09964 11.9719 4.08605 11.9629 4.07699C11.9538 4.06793 11.9372 4.06341 11.913 4.06341H11.8451V4.24457H11.8723V4.16757H11.904L11.9538 4.24457H11.981L11.9312 4.16757C11.9463 4.16455 11.9576 4.15927 11.9651 4.15172ZM11.904 4.14493C11.9161 4.14493 11.9266 4.14342 11.9357 4.1404C11.9447 4.13738 11.9493 4.12983 11.9493 4.11775C11.9493 4.10568 11.9455 4.09737 11.938 4.09284C11.9304 4.08832 11.9206 4.08605 11.9085 4.08605H11.8723V4.14493H11.904Z" fill="url(#paint1_linear_12208_910)"/>
<defs>
<radialGradient id="paint0_radial_12208_910" cx="0" cy="0" r="1" gradientUnits="userSpaceOnUse" gradientTransform="translate(8) rotate(90) scale(16)">
<stop stop-color="#006FFF"/>
<stop offset="1" stop-color="#003C9E"/>
</radialGradient>
<linearGradient id="paint1_linear_12208_910" x1="6.9563" y1="16.2988" x2="12.4437" y2="9.55768" gradientUnits="userSpaceOnUse">
<stop stop-color="#C2C4CE"/>
<stop offset="0.39697" stop-color="#D6D9E2"/>
<stop offset="1" stop-color="white"/>
</linearGradient>
</defs>
</svg>
